<svg xmlns="http://www.w3.org/2000/svg" viewBox="0 0 447.06104 84.29357"><path d="M35.908 71.295 13.536 40.181v31.114H0v-61.1h13.536V38.96l22.372-28.764h16.168L28.764 39.711l23.218 31.584H35.908ZM53.862 71.295v-61.1h31.584c2.444.064 4.855.408 7.238 1.034 2.38.627 4.496 1.567 6.345 2.82a14.406 14.406 0 0 1 4.465 4.841c1.128 1.974 1.692 4.31 1.692 7.003 0 2.632-.518 5.17-1.551 7.614-1.034 2.444-2.649 4.45-4.842 6.016a16.926 16.926 0 0 1 4.418 3.196c1.065 1.128 2.069 2.632 3.009 4.513.94 1.879 1.41 4.199 1.41 6.955 0 2.444-.486 4.717-1.457 6.815-.973 2.1-2.257 3.902-3.854 5.405a18.483 18.483 0 0 1-5.5 3.573c-2.068.878-4.168 1.315-6.298 1.315h-36.66Zm13.535-51.982v15.322h17.955c.877 0 1.753-.156 2.631-.47.877-.313 1.66-.799 2.35-1.457a7.89 7.89 0 0 0 1.692-2.397c.438-.94.659-2.035.659-3.29 0-2.256-.738-4.104-2.21-5.546-1.473-1.44-3.587-2.162-6.345-2.162H67.397Zm19.224 42.441c1.598-.282 3.023-.782 4.276-1.504a8.781 8.781 0 0 0 3.056-2.914c.782-1.221 1.174-2.741 1.174-4.56 0-2.819-1.019-5.042-3.054-6.673-2.037-1.63-4.529-2.444-7.473-2.444H67.397v18.518h14.289c1.691 0 3.336-.14 4.935-.423ZM141.093 62.177c2.882 0 5.218-.908 7.004-2.727 1.785-1.816 2.678-4.04 2.678-6.673-.063-2.631-.972-4.73-2.726-6.297-1.755-1.567-4.105-2.35-7.05-2.35h-13.16c-2.443 0-4.826-.345-7.144-1.035-2.319-.688-4.37-1.753-6.156-3.196-1.787-1.44-3.213-3.243-4.277-5.405-1.067-2.162-1.598-4.747-1.598-7.755s.531-5.56 1.598-7.66c1.064-2.1 2.49-3.808 4.277-5.124s3.837-2.27 6.156-2.867a29.013 29.013 0 0 1 7.239-.893h32.053v9.024h-29.891c-2.57 0-4.639.611-6.204 1.833-1.568 1.222-2.35 3.118-2.35 5.687 0 2.382.782 4.246 2.35 5.593 1.565 1.348 3.633 2.021 6.204 2.021h14.006c2.067 0 4.244.298 6.532.893a18.294 18.294 0 0 1 6.299 3.008c1.91 1.41 3.508 3.29 4.794 5.64 1.283 2.35 1.926 5.311 1.926 8.883 0 3.699-.643 6.738-1.926 9.119-1.286 2.382-2.884 4.276-4.794 5.686a17.021 17.021 0 0 1-6.299 2.914c-2.288.534-4.434.8-6.439.8h-33.088v-9.119h29.986Z" style="fill:#09003e"/><path d="M258.78 24.953c1.943 4.324 3.087 8.43 3.432 12.314.344 3.887.297 7.348-.141 10.387-.439 3.04-1.05 5.609-1.833 7.709-.784 2.1-1.363 3.524-1.738 4.277-1.067 2.38-2.524 4.7-4.372 6.955-1.85 2.256-4.027 4.293-6.532 6.11-2.007 1.378-3.964 2.445-5.875 3.197-1.912.752-3.4 1.283-4.465 1.597a14.874 14.874 0 0 1-3.901 3.384 20.364 20.364 0 0 1-4.841 2.067c-4.263 1.254-8.711 1.63-13.348 1.13-4.639-.503-9.103-1.787-13.395-3.854-4.293-2.069-8.258-4.874-11.892-8.414-3.634-3.54-6.548-7.754-8.741-12.643-1.944-4.324-3.088-8.428-3.431-12.314-.346-3.885-.298-7.363.14-10.434.438-3.07 1.082-5.655 1.927-7.755.847-2.099 1.457-3.525 1.833-4.277.94-2.38 2.318-4.684 4.137-6.909 1.817-2.223 4.01-4.214 6.58-5.969 2.005-1.377 3.962-2.475 5.875-3.29 1.91-.814 3.398-1.377 4.465-1.692 2.38-2.632 5.264-4.418 8.648-5.358 4.324-1.128 8.803-1.44 13.442-.94 4.637.503 9.118 1.786 13.441 3.854 4.325 2.068 8.287 4.857 11.891 8.366 3.603 3.51 6.5 7.677 8.695 12.502Zm3.197 16.732.094-.188v-.282c-.251-1.692-.72-3.414-1.41-5.17-.627-1.504-1.52-3.163-2.68-4.982-1.16-1.817-2.741-3.572-4.746-5.264-4.074-3.32-8.256-5.56-12.548-6.72-4.293-1.16-8.446-1.77-12.456-1.834-1.818-.062-3.885 0-6.204.188s-4.779.517-7.379.987c-2.6.47-5.216 1.113-7.848 1.927a46.1 46.1 0 0 0-7.426 3.008c.125.376.282.752.47 1.128l.564 1.128c-1.944.752-3.713 1.661-5.311 2.726-1.598 1.067-2.994 2.132-4.183 3.196a54.079 54.079 0 0 0-3.854 3.666c-.69.752-1.144 1.38-1.363 1.88-.22.502-.33.91-.33 1.222 0 .315.094.597.282.846 1.317 2.068 2.898 3.793 4.747 5.17a27.539 27.539 0 0 0 5.782 3.337 29.223 29.223 0 0 0 6.063 1.834c2.035.375 3.915.627 5.64.752 1.723.125 3.21.156 4.465.093 1.253-.062 2.13-.125 2.632-.187a85.71 85.71 0 0 1 4.982-.894c1.504-.219 2.882-.329 4.136-.329 1.504 0 2.882.22 4.135.658-2.381.565-4.92 1.098-7.614 1.598a55.289 55.289 0 0 1-8.318.893 45.344 45.344 0 0 1-8.508-.517 28.179 28.179 0 0 1-8.083-2.538c-2.383-1.065-4.388-2.223-6.017-3.478-1.63-1.253-3.007-2.506-4.135-3.76-1.128-1.253-2.007-2.522-2.632-3.807-.628-1.283-1.097-2.49-1.41-3.619-.69-2.694-.69-5.42 0-8.178v-.094c0-.125-.033-.188-.095-.188-.063 0-.156.063-.281.188l-.095.094c-.564 1.504-.893 2.946-.986 4.324-.095 1.38-.08 2.601.046 3.666.125 1.191.376 2.32.752 3.384.69 2.256 1.676 4.23 2.961 5.922 1.284 1.692 2.726 3.15 4.325 4.371s3.274 2.273 5.028 3.15a57.105 57.105 0 0 0 5.077 2.255c3.383 1.192 7.487 1.88 12.314 2.069 4.825.187 9.744-.314 14.757-1.504a96.17 96.17 0 0 0 4.184-1.317c1.283-.437 2.428-.814 3.43-1.129.502.315 1.003.659 1.505 1.036.5.375 1.001.752 1.503 1.127-1.63.752-3.853 1.551-6.673 2.397-2.82.847-6.487 1.52-10.998 2.02-4.075.503-7.677.565-10.81.189-3.135-.376-5.829-.907-8.084-1.598-2.256-.688-4.075-1.393-5.452-2.115a97.379 97.379 0 0 1-2.726-1.457c-.44-.313-1.301-.94-2.585-1.88-1.285-.94-2.618-2.162-3.995-3.666-1.38-1.504-2.633-3.29-3.76-5.358s-1.786-4.418-1.974-7.05v-.094c0-.125-.064-.188-.188-.188-.188 0-.282.094-.282.282v.188c-.127 3.008.47 5.985 1.786 8.93.564 1.255 1.3 2.538 2.209 3.855.907 1.315 2.068 2.617 3.478 3.9 1.41 1.285 3.086 2.508 5.029 3.666 1.941 1.16 4.23 2.21 6.861 3.149 4.074 1.443 8.084 2.256 12.033 2.445 3.948.187 7.675.031 11.185-.47 3.51-.502 6.705-1.224 9.589-2.163 2.88-.94 5.295-1.848 7.237-2.726.314.439.612.878.894 1.316.282.44.548.91.799 1.41-1.255.69-3.087 1.49-5.5 2.397-2.412.91-5.624 1.771-9.634 2.585-3.385.627-6.707.94-9.964.94-3.26 0-6.299-.202-9.118-.611-2.82-.407-5.344-.971-7.568-1.692-2.225-.72-4.027-1.488-5.404-2.303a53.316 53.316 0 0 1-4.09-2.82 31.275 31.275 0 0 1-4.041-3.666 27.569 27.569 0 0 1-3.478-4.652c-1.034-1.724-1.833-3.65-2.397-5.782-.064-.061-.094-.124-.094-.188l-.188-.188c-.063 0-.095.064-.095.188v.188c.25 1.755.72 3.51 1.41 5.264.627 1.504 1.52 3.165 2.68 4.983 1.158 1.818 2.74 3.572 4.747 5.263 2.005 1.631 4.056 2.993 6.157 4.09 2.099 1.096 4.197 1.96 6.297 2.584 2.1.627 4.184 1.081 6.251 1.363 2.069.282 4.104.423 6.11.423 1.755.064 3.822 0 6.205-.188a75.433 75.433 0 0 0 7.472-.987 66.68 66.68 0 0 0 7.85-1.927 40.999 40.999 0 0 0 7.426-3.102 14.078 14.078 0 0 0-1.034-2.162 24.455 24.455 0 0 0 5.263-2.679c1.63-1.095 3.07-2.176 4.324-3.243a44.68 44.68 0 0 0 3.948-3.666c.94-1.128 1.41-2.098 1.41-2.914 0-.376-.094-.72-.282-1.033-1.316-2.069-2.884-3.776-4.7-5.124a27.684 27.684 0 0 0-5.734-3.29 31.525 31.525 0 0 0-6.062-1.88c-2.037-.407-3.917-.672-5.64-.799-1.725-.124-3.228-.156-4.513-.094-1.285.063-2.147.158-2.585.282-1.88.315-3.54.58-4.981.8-1.442.22-2.82.328-4.137.328-1.379 0-2.758-.188-4.136-.564a95.646 95.646 0 0 1 7.568-1.692 56.539 56.539 0 0 1 8.366-.893 46.27 46.27 0 0 1 8.554.517 31.537 31.537 0 0 1 8.224 2.444c2.319 1.128 4.292 2.303 5.922 3.525 1.629 1.222 2.975 2.476 4.042 3.76 1.065 1.285 1.91 2.57 2.538 3.854.626 1.285 1.096 2.492 1.41 3.619.688 2.695.72 5.39.094 8.084a.737.737 0 0 0-.094.282c0 .126.062.189.188.189l.188-.189c0-.061.031-.124.094-.188.564-1.504.893-2.928.987-4.277.094-1.346.078-2.553-.047-3.619a21.357 21.357 0 0 0-.658-3.477c-.69-2.256-1.691-4.23-3.008-5.923s-2.773-3.149-4.371-4.37a29.05 29.05 0 0 0-5.029-3.103 68.304 68.304 0 0 0-5.075-2.209c-3.323-1.252-7.395-1.957-12.22-2.115-4.827-.155-9.776.362-14.852 1.551-1.504.44-2.867.862-4.09 1.27a96.27 96.27 0 0 0-3.336 1.174 9.076 9.076 0 0 1-1.552-1.08c-.47-.408-.956-.83-1.456-1.27 1.566-.752 3.76-1.535 6.58-2.35 2.82-.813 6.486-1.471 10.997-1.974 4.01-.5 7.598-.564 10.764-.188 3.163.376 5.89.91 8.178 1.598 2.287.69 4.103 1.41 5.452 2.162 1.347.752 2.27 1.286 2.772 1.598.437.314 1.284.91 2.538 1.786 1.253.879 2.553 2.068 3.901 3.572 1.347 1.504 2.6 3.275 3.76 5.311 1.16 2.038 1.833 4.371 2.022 7.003v.188c0 .189.093.22.28.094.19 0 .283-.061.283-.188v-.188c.062-3.07-.563-6.047-1.88-8.93-.564-1.19-1.302-2.444-2.209-3.76-.909-1.316-2.068-2.616-3.478-3.9-1.41-1.284-3.087-2.507-5.029-3.667-1.943-1.159-4.23-2.209-6.861-3.149-4.075-1.44-8.084-2.27-12.033-2.49-3.947-.22-7.66-.078-11.138.422-3.478.502-6.674 1.222-9.588 2.162s-5.344 1.85-7.285 2.726c-.315-.437-.611-.877-.893-1.316-.282-.438-.55-.907-.8-1.41 1.254-.689 3.087-1.472 5.5-2.35 2.411-.876 5.593-1.753 9.54-2.632 3.385-.625 6.705-.94 9.965-.94 3.257 0 6.298.204 9.117.611 2.82.408 5.359.973 7.615 1.692 2.255.721 4.042 1.49 5.358 2.303a62.098 62.098 0 0 1 4.135 2.82 30.045 30.045 0 0 1 4.09 3.666c1.283 1.38 2.458 2.946 3.524 4.7 1.065 1.755 1.88 3.698 2.444 5.828 0 .063.031.126.095.188 0 .251.061.314.187.188Zm-82.155 12.127c.312.752.72 1.63 1.221 2.63.501 1.005 1.19 2.069 2.069 3.198.813 1.127 1.941 2.35 3.384 3.665 1.44 1.316 3.195 2.585 5.264 3.808 2.068 1.221 4.448 2.302 7.144 3.242 2.693.94 5.67 1.629 8.93 2.068 3.133.376 6.219.501 9.259.376a60.971 60.971 0 0 0 8.789-.987 66.556 66.556 0 0 0 8.037-2.02c2.538-.814 4.871-1.724 7.003-2.726l.563-.284v-1.22c0-.502-.062-.94-.187-1.317-.752.376-1.897.878-3.432 1.504-1.536.627-3.369 1.27-5.499 1.927a77.776 77.776 0 0 1-7.003 1.786 57.77 57.77 0 0 1-7.942 1.081c-1.692.126-3.651.142-5.875.047a49.713 49.713 0 0 1-6.91-.799 51.213 51.213 0 0 1-7.284-1.926 31.674 31.674 0 0 1-7.097-3.479c-2.256-1.472-4.324-3.273-6.204-5.404s-3.447-4.668-4.7-7.616c-.063-.06-.094-.124-.094-.187-.064-.062-.127-.094-.188-.094v.376c.188.69.437 1.474.752 2.35Zm34.121 24.815c6.017.25 11.108-.095 15.276-1.034 4.167-.94 7.597-2.068 10.293-3.384a17.064 17.064 0 0 0 .94-2.256c-2.32 1.19-5.297 2.256-8.93 3.197-3.635.94-8.178 1.534-13.63 1.785-3.824.125-7.318-.14-10.482-.799s-5.985-1.52-8.46-2.585c-2.476-1.066-4.652-2.241-6.533-3.524-1.88-1.285-3.446-2.492-4.7-3.62-1.254-1.128-2.208-2.083-2.866-2.867-.658-.783-1.02-1.236-1.081-1.363a3.13 3.13 0 0 1-.423-.564 38.688 38.688 0 0 0-.423-.658c-.188-.25-.345-.47-.47-.658 0-.061-.033-.125-.094-.188-.127-.06-.22-.06-.282 0v.188c0 .064.03.126.094.189 1.565 3.195 3.79 6.078 6.674 8.647 1.19 1.128 2.6 2.224 4.23 3.29 1.629 1.065 3.478 2.035 5.546 2.914 2.067.877 4.37 1.613 6.908 2.21 2.538.594 5.342.954 8.413 1.08Zm46.154-48.316a82.135 82.135 0 0 0-1.222-2.538c-.502-1.002-1.19-2.068-2.068-3.196-.815-1.128-1.959-2.364-3.43-3.713-1.474-1.347-3.244-2.632-5.312-3.854-2.067-1.222-4.433-2.317-7.096-3.29-2.664-.97-5.625-1.645-8.883-2.021-6.331-.689-12.361-.47-18.096.658-5.733 1.128-10.95 2.79-15.65 4.982 0 1.004.094 1.818.282 2.444.814-.376 2.02-.893 3.619-1.55s3.461-1.3 5.593-1.928a94.37 94.37 0 0 1 6.956-1.739 48.149 48.149 0 0 1 7.708-.987c2.632-.125 5.733-.03 9.306.282 3.572.315 7.175 1.128 10.81 2.444 3.633 1.316 7.064 3.29 10.292 5.922 3.227 2.632 5.781 6.173 7.66 10.622l.096.094c0 .188.061.22.187.094v-.376a32.963 32.963 0 0 0-.752-2.35ZM226.07 5.495c-6.015-.25-11.124.11-15.32 1.081-4.2.973-7.647 2.115-10.341 3.431a9.278 9.278 0 0 1-.47.987 6.562 6.562 0 0 0-.47 1.081c2.38-1.128 5.388-2.162 9.023-3.102 3.634-.94 8.179-1.535 13.631-1.786 3.821-.125 7.299.127 10.434.752 3.132.627 5.936 1.473 8.413 2.538 2.474 1.067 4.636 2.242 6.486 3.525 1.847 1.285 3.398 2.491 4.652 3.62 1.253 1.127 2.209 2.1 2.867 2.913.658.815 1.049 1.286 1.175 1.41.125.188.266.392.423.611.156.22.297.423.424.611.187.251.342.503.47.752l.093.094c.125.126.219.157.282.094v-.376c0-.061-.032-.125-.093-.188-1.568-3.133-3.793-5.984-6.675-8.554-2.444-2.193-5.703-4.245-9.775-6.157-4.074-1.91-9.15-3.023-15.229-3.337Z" style="fill:#2282b9"/><path d="M278.615 43.753v-8.93h15.51V23.261h12.501v11.562h25.945v8.93h-53.956Zm36.66-25.944h-32.9V8.785h36.472c3.384 0 5.859.627 7.426 1.88 1.565 1.255 2.35 3.384 2.35 6.392v14.758h-13.348V17.81Zm-27.166 50.102c-2.444-2.193-3.666-4.982-3.666-8.366 0-3.571 1.206-6.47 3.619-8.694 2.411-2.225 6.094-3.338 11.045-3.338h37.6c4.95 0 8.631 1.144 11.044 3.432 2.413 2.288 3.62 5.123 3.62 8.505 0 3.385-1.222 6.19-3.666 8.415-2.444 2.224-6.11 3.335-10.998 3.335h-37.6c-4.888 0-8.554-1.094-10.998-3.289Zm44.838-5.358c3.76 0 5.64-1.064 5.64-3.196 0-2.13-1.88-3.196-5.64-3.196h-29.328c-2.069 0-3.62.235-4.654.705-1.033.47-1.55 1.301-1.55 2.49 0 1.192.517 2.022 1.55 2.493 1.035.469 2.585.704 4.654.704h29.328Zm28.763-41.454v9.024h-11.937v13.63h-13.442V8.785h13.442V21.1h11.937ZM447.061 57.572h-33.088v13.723h-13.818V57.572h-33.37v-8.93h80.276v8.93Zm-5.733-48.975h-68.34v9.024h15.699l-14.288 24.44h15.51l14.1-24.44h6.204l13.16 24.44h15.51l-13.536-24.44h15.98V8.597Z" style="fill:#09003e"/></svg>